<svg xmlns="http://www.w3.org/2000/svg" width="24" height="24" fill="#2C3E50" viewBox="0 0 24 24"><path d="M12 2.163c3.204 0 3.584.012 4.85.07 1.366.062 2.633.346 3.608 1.32.974.974 1.257 2.242 1.32 3.608.058 1.266.07 1.645.07 4.84 0 3.204-.012 3.584-.07 4.85-.063 1.366-.346 2.633-1.32 3.608-.974.974-2.242 1.257-3.608 1.32-1.266.058-1.645.07-4.85.07s-3.584-.012-4.85-.07c-1.366-.063-2.633-.346-3.608-1.32-.974-.974-1.257-2.242-1.32-3.608C2.175 15.584 2.163 15.204 2.163 12s.012-3.584.07-4.85c.062-1.366.346-2.633 1.32-3.608C4.527 2.58 5.795 2.297 7.16 2.234 8.426 2.175 8.806 2.163 12 2.163zm0-2.163C8.736 0 8.332.014 7.052.072 5.773.13 4.65.39 3.678 1.362c-.972.972-1.232 2.095-1.29 3.374C2.014 6.667 2 7.07 2 10.335v3.33c0 3.264.014 3.668.072 4.948.058 1.278.318 2.401 1.29 3.373.972.973 2.095 1.233 3.373 1.29C8.332 23.986 8.736 24 12 24s3.668-.014 4.948-.072c1.278-.058 2.401-.318 3.373-1.29.973-.972 1.233-2.095 1.29-3.373.058-1.28.072-1.684.072-4.948v-3.33c0-3.264-.014-3.668-.072-4.948-.058-1.278-.318-2.401-1.29-3.373-.972-.972-2.095-1.232-3.373-1.29C15.668.014 15.264 0 12 0z"/><path d="M12 5.838a6.162 6.162 0 1 0 0 12.324A6.162 6.162 0 0 0 12 5.838zm0 10.162a4 4 0 1 1 0-8 4 4 0 0 1 0 8z"/><circle cx="18.406" cy="5.594" r="1.44"/></svg>