<svg xmlns="http://www.w3.org/2000/svg" width="24" height="24" fill="#2C3E50" viewBox="0 0 24 24"><path d="M20.447 20.452H17.21v-5.569c0-1.328-.025-3.036-1.848-3.036-1.848 0-2.131 1.445-2.131 2.939v5.666H9.001V9h3.104v1.561h.045c.434-.823 1.495-1.692 3.076-1.692 3.29 0 3.895 2.165 3.895 4.977v6.606zM5.337 7.433a1.815 1.815 0 1 1 0-3.63 1.815 1.815 0 0 1 0 3.63zM6.799 20.452H3.873V9h2.926v11.452zM22.225 0H1.771C.792 0 0 .774 0 1.727v20.545C0 23.226.792 24 1.771 24h20.451C23.2 24 24 23.226 24 22.273V1.727C24 .774 23.2 0 22.225 0z"/></svg>